<?xml version="1.0" standalone="no"?>
<!DOCTYPE svg PUBLIC "-//W3C//DTD SVG 20010904//EN"
 "http://www.w3.org/TR/2001/REC-SVG-20010904/DTD/svg10.dtd">
<svg version="1.0" xmlns="http://www.w3.org/2000/svg"
 width="300.000000pt" height="200.000000pt" viewBox="0 0 300.000000 200.000000"
 preserveAspectRatio="xMidYMid meet">
<metadata>
Created by potrace 1.10, written by Peter Selinger 2001-2011
</metadata>
<g transform="translate(0.000000,200.000000) scale(0.100000,-0.100000)"
fill="#000000" stroke="none">
<path d="M864 1866 c-3 -8 -4 -259 -2 -558 4 -450 7 -552 20 -596 16 -55 42
-92 65 -92 18 0 16 16 -7 48 -38 53 -41 107 -41 669 1 482 -1 543 -14 543 -9
0 -18 -6 -21 -14z"/>
<path d="M1495 1869 c-12 -18 -7 -1161 4 -1191 14 -36 46 -51 93 -45 55 7 85
39 97 101 6 28 13 155 17 281 9 345 -14 463 -96 485 -22 6 -51 8 -65 4 l-25
-6 0 185 c0 170 -6 217 -25 186z m134 -433 c34 -55 44 -166 37 -426 -6 -252
-14 -301 -51 -326 -41 -27 -68 -15 -82 36 -16 64 -18 721 -1 738 7 7 26 12 44
12 26 0 37 -7 53 -34z"/>
<path d="M1276 1723 c3 -81 6 -169 8 -196 3 -45 2 -47 -18 -40 -60 22 -122 -3
-153 -60 -16 -29 -18 -64 -18 -347 0 -342 3 -364 55 -420 35 -38 98 -42 129
-9 44 47 46 85 43 609 -4 537 -8 603 -33 608 -15 3 -17 -11 -13 -145z m-41
-259 c8 -4 23 -21 33 -38 14 -27 17 -72 20 -323 4 -305 -3 -382 -38 -425 -26
-32 -66 -16 -94 37 -20 37 -21 59 -24 329 -2 159 -1 305 3 325 4 22 20 48 42
68 38 37 35 35 58 27z"/>
<path d="M410 1830 c-118 -28 -182 -238 -184 -600 -1 -200 11 -300 50 -414 64
-191 217 -246 317 -114 40 51 74 134 92 223 32 152 17 599 -25 746 -17 61 -66
118 -123 145 -55 25 -71 27 -127 14z m120 -44 c52 -26 88 -86 117 -196 27 -97
26 -585 0 -678 -41 -144 -92 -224 -157 -243 -33 -10 -43 -9 -72 8 -77 45 -128
153 -149 318 -24 184 -5 523 36 661 20 68 53 115 95 136 46 24 76 22 130 -6z"/>
<path d="M1912 1513 c-24 -10 -51 -81 -63 -169 -16 -121 -6 -506 16 -589 25
-98 84 -136 154 -100 34 17 51 60 51 127 0 72 -22 57 -40 -28 -16 -73 -26 -82
-77 -70 -17 5 -31 21 -45 54 -18 40 -22 72 -26 215 l-5 169 79 -2 c44 -1 85
-2 93 -1 11 1 13 25 8 139 -6 149 -18 205 -50 240 -20 21 -63 28 -95 15z m90
-66 c7 -13 14 -80 16 -159 l5 -138 -72 0 -71 0 0 95 c0 118 15 191 46 222 19
19 28 22 44 13 11 -6 25 -20 32 -33z"/>
<path d="M2266 1495 c-14 -13 -31 -36 -36 -50 -6 -16 -10 -180 -10 -406 0
-330 2 -379 15 -379 8 0 16 1 16 3 1 1 4 176 8 389 6 381 6 388 28 409 l22 22
35 -26 c61 -47 76 -30 25 28 -37 42 -66 45 -103 10z"/>
<path d="M2617 1505 c-39 -20 -63 -52 -82 -104 -12 -35 -15 -93 -15 -275 0
-251 9 -342 40 -415 38 -87 108 -102 156 -32 l25 36 -3 -265 c-3 -231 -5 -269
-21 -298 -14 -26 -23 -32 -52 -32 -63 0 -95 76 -95 228 0 81 -9 110 -30 97
-15 -9 -7 -192 11 -259 29 -108 149 -143 194 -57 30 58 33 155 27 721 -8 623
-7 615 -71 653 -35 21 -48 21 -84 2z m76 -40 c39 -39 48 -151 38 -470 -6 -219
-8 -232 -31 -275 -19 -34 -32 -46 -53 -48 -25 -3 -30 2 -55 55 l-27 58 -3 280
c-3 296 2 352 40 393 25 25 69 29 91 7z"/>
</g>
</svg>
