<?xml version="1.0" standalone="no"?>
<!DOCTYPE svg PUBLIC "-//W3C//DTD SVG 20010904//EN"
 "http://www.w3.org/TR/2001/REC-SVG-20010904/DTD/svg10.dtd">
<svg version="1.0" xmlns="http://www.w3.org/2000/svg"
 width="300.000000pt" height="300.000000pt" viewBox="0 0 300.000000 300.000000"
 preserveAspectRatio="xMidYMid meet">
<metadata>
Created by potrace 1.10, written by Peter Selinger 2001-2011
</metadata>
<g transform="translate(0.000000,300.000000) scale(0.100000,-0.100000)"
fill="#000000" stroke="none">
<path d="M867 2314 c-11 -11 -8 -977 3 -1082 10 -92 24 -135 55 -166 36 -35
47 -11 15 32 -36 49 -41 125 -43 679 -2 516 -5 562 -30 537z"/>
<path d="M1495 2299 c-13 -19 -7 -1152 5 -1184 15 -38 26 -45 78 -45 100 0
112 29 124 280 16 327 2 495 -46 555 -22 27 -30 30 -80 30 l-57 0 1 175 c0 96
1 181 0 188 0 15 -16 16 -25 1z m120 -413 c40 -40 47 -87 50 -326 3 -248 -5
-385 -26 -418 -19 -30 -69 -47 -87 -29 -26 27 -32 96 -32 433 l0 341 23 11
c33 16 46 14 72 -12z"/>
<path d="M1277 2158 c2 -79 5 -167 7 -196 2 -45 0 -52 -13 -46 -9 4 -32 9 -53
12 -30 3 -42 -1 -72 -30 -52 -48 -59 -97 -54 -433 4 -309 7 -327 68 -378 46
-39 96 -35 126 10 42 62 46 134 38 638 -7 509 -10 558 -35 563 -15 3 -16 -13
-12 -140z m-23 -277 c29 -32 38 -139 34 -429 -3 -233 -6 -283 -20 -315 -21
-45 -40 -54 -73 -33 -57 37 -60 55 -63 377 -4 335 0 369 51 399 40 25 50 25
71 1z"/>
<path d="M384 2251 c-86 -39 -133 -175 -156 -456 -21 -251 14 -506 86 -628 50
-86 140 -125 210 -92 71 34 121 120 157 271 19 79 21 115 20 314 -3 398 -41
533 -166 591 -51 24 -99 24 -151 0z m150 -34 c96 -55 136 -205 136 -520 0
-230 -10 -317 -47 -422 -46 -125 -91 -175 -161 -175 -71 0 -148 103 -177 235
-43 202 -33 576 20 761 35 123 134 176 229 121z"/>
<path d="M1935 1952 c-65 -13 -85 -83 -92 -322 -9 -324 17 -508 77 -540 38
-20 90 -15 117 13 20 20 26 38 31 92 7 89 -16 86 -38 -5 -9 -35 -23 -68 -32
-74 -21 -13 -61 5 -82 36 -23 36 -37 151 -34 283 l3 120 88 -4 87 -3 0 98 c0
118 -14 224 -35 263 -15 30 -57 50 -90 43z m40 -38 c27 -11 37 -52 44 -191 l6
-132 -25 -4 c-14 -3 -47 -3 -74 0 l-49 6 6 121 c5 124 16 172 44 194 19 14 25
14 48 6z"/>
<path d="M2271 1934 c-49 -34 -51 -56 -51 -459 0 -309 2 -375 14 -375 21 0 26
89 26 437 0 262 3 319 15 343 19 37 35 38 73 5 56 -47 72 -22 23 33 -33 36
-64 41 -100 16z"/>
<path d="M2608 1934 c-15 -8 -40 -36 -55 -62 l-28 -47 -3 -234 c-5 -325 15
-453 76 -501 39 -32 76 -26 112 18 l31 37 -3 -260 c-2 -207 -6 -266 -18 -289
-21 -41 -43 -52 -77 -41 -46 16 -65 70 -71 198 -4 109 -14 143 -35 130 -14 -9
0 -222 19 -275 18 -53 38 -74 80 -88 49 -16 83 3 114 65 l25 50 -3 590 c-2
354 -7 606 -14 629 -20 80 -86 115 -150 80z m98 -49 c25 -38 33 -187 25 -440
-6 -213 -9 -245 -28 -287 -40 -87 -95 -67 -128 47 -13 45 -16 103 -13 342 3
314 6 330 60 356 37 18 64 12 84 -18z"/>
</g>
</svg>
